<svg viewBox="0 0 64 64" xmlns="http://www.w3.org/2000/svg">
  <!-- 厨师帽 -->
  <ellipse cx="32" cy="14" rx="12" ry="8" fill="#FFFFFF" stroke="#E0E0E0" stroke-width="0.5"/>
  <circle cx="22" cy="12" r="6" fill="#FFFFFF" stroke="#E0E0E0" stroke-width="0.5"/>
  <circle cx="42" cy="12" r="6" fill="#FFFFFF" stroke="#E0E0E0" stroke-width="0.5"/>
  <circle cx="32" cy="8" r="6" fill="#FFFFFF" stroke="#E0E0E0" stroke-width="0.5"/>
  <rect x="21" y="14" width="22" height="8" rx="1" fill="#FFFFFF"/>
  <line x1="21" y1="22" x2="43" y2="22" stroke="#E0E0E0" stroke-width="1.5"/>
  <!-- 脸 -->
  <ellipse cx="32" cy="32" rx="11" ry="12" fill="#F5CBA7"/>
  <!-- 眼睛 -->
  <circle cx="27" cy="30" r="1.8" fill="#333"/>
  <circle cx="37" cy="30" r="1.8" fill="#333"/>
  <!-- 微笑 -->
  <path d="M27 36 Q32 41 37 36" fill="none" stroke="#333" stroke-width="1.5" stroke-linecap="round"/>
  <!-- 腮红 -->
  <ellipse cx="24" cy="35" rx="3" ry="2" fill="#F5A9A9" opacity="0.5"/>
  <ellipse cx="40" cy="35" rx="3" ry="2" fill="#F5A9A9" opacity="0.5"/>
  <!-- 身体/衣服 -->
  <path d="M20 44 Q20 42 24 42 L40 42 Q44 42 44 44 L46 56 L18 56Z" fill="#FFFFFF" stroke="#E0E0E0" stroke-width="0.5"/>
  <line x1="32" y1="42" x2="32" y2="56" stroke="#E0E0E0" stroke-width="1"/>
  <!-- 领巾 -->
  <path d="M26 42 L32 48 L38 42" fill="#E67E22"/>
</svg>
